HIERARCHY
ROOT Hips
{
	OFFSET 0.000000 88.474243 0.000000
	CHANNELS 6 Xposition Yposition Zposition Zrotation Yrotation Xrotation 
	JOINT Hips_Spine
	{
		OFFSET 0.000000 0.000000 0.000000
		CHANNELS 3 Zrotation Yrotation Xrotation
		JOINT Spine
		{
			OFFSET 0.005100 8.711998 -0.691000
			CHANNELS 3 Zrotation Yrotation Xrotation
			JOINT Spine1
			{
				OFFSET -0.009200 8.660301 -1.275000
				CHANNELS 3 Zrotation Yrotation Xrotation
				JOINT Spine2
				{
					OFFSET 0.006300 9.852501 -1.857000
					CHANNELS 3 Zrotation Yrotation Xrotation
					JOINT Spine2_Neck
					{
						OFFSET 0.000000 0.000000 0.000000
						CHANNELS 3 Zrotation Yrotation Xrotation
						JOINT Neck
						{
							OFFSET 0.016300 11.420799 -0.263300
							CHANNELS 3 Zrotation Yrotation Xrotation
							End Site #name: Head
							{
								OFFSET -0.019200 9.262405 2.362500
							}
						}
					}
					JOINT Spine2_LeftShoulder
					{
						OFFSET 0.000000 0.000000 0.000000
						CHANNELS 3 Zrotation Yrotation Xrotation
						JOINT LeftShoulder
						{
							OFFSET 5.616900 6.732201 -0.345700
							CHANNELS 3 Zrotation Yrotation Xrotation
							JOINT LeftArm
							{
								OFFSET 10.664888 -0.183372 -2.440700
								CHANNELS 3 Zrotation Yrotation Xrotation
								JOINT LeftForeArm
								{
									OFFSET 27.459126 0.000000 0.000000
									CHANNELS 3 Zrotation Yrotation Xrotation
									End Site #name: LeftHand
									{
										OFFSET 21.306858 0.000000 0.000000
									}
								}
							}
						}
					}
					JOINT Spine2_RightShoulder
					{
						OFFSET 0.000000 0.000000 0.000000
						CHANNELS 3 Zrotation Yrotation Xrotation
						JOINT RightShoulder
						{
							OFFSET -5.580300 6.737503 -0.344400
							CHANNELS 3 Zrotation Yrotation Xrotation
							JOINT RightArm
							{
								OFFSET -10.679335 -0.188484 -2.383900
								CHANNELS 3 Zrotation Yrotation Xrotation
								JOINT RightForeArm
								{
									OFFSET -27.503529 0.000000 0.000000
									CHANNELS 3 Zrotation Yrotation Xrotation
									End Site #name: RightHand
									{
										OFFSET -21.306808 0.000000 0.000000
									}
								}
							}
						}
					}
				}
			}
		}
	}
	JOINT Hips_LeftUpLeg
	{
		OFFSET 0.000000 0.000000 0.000000
		CHANNELS 3 Zrotation Yrotation Xrotation
		JOINT LeftUpLeg
		{
			OFFSET 6.857700 -6.739601 0.312100
			CHANNELS 3 Zrotation Yrotation Xrotation
			JOINT LeftLeg
			{
				OFFSET -0.367590 -34.731552 -4.572400
				CHANNELS 3 Zrotation Yrotation Xrotation
				End Site #name: LeftFoot
				{
					OFFSET 0.367590 -34.656704 -6.067400
				}
			}
		}
	}
	JOINT Hips_RightUpLeg
	{
		OFFSET 0.000000 0.000000 0.000000
		CHANNELS 3 Zrotation Yrotation Xrotation
		JOINT RightUpLeg
		{
			OFFSET -6.876100 -6.733299 0.301000
			CHANNELS 3 Zrotation Yrotation Xrotation
			JOINT RightLeg
			{
				OFFSET 0.347353 -34.795158 -4.515900
				CHANNELS 3 Zrotation Yrotation Xrotation
				End Site #name: RightFoot
				{
					OFFSET -0.347353 -34.589367 -6.070300
				}
			}
		}
	}
}
MOTION
Frames: 14
Frame Time: 0.041667
0.178220 0.044613 -0.024110 1.428375 16.954944 -6.221643 -0.000000 0.000000 0.000000 0.129515 -2.066396 -0.487003 0.422212 -1.578645 -1.852308 0.000000 0.000000 0.000000 0.139632 -0.931114 -1.939747 4.300174 0.791676 -5.802416 0.557372 -1.726873 -2.736632 -15.941706 -5.584430 2.185286 -47.056407 -0.977319 7.839794 -0.542222 -33.964256 6.127078 0.543752 -1.319623 -1.109710 12.573579 10.934691 4.636783 57.270706 -7.726938 -5.406203 -0.793681 56.773722 0.468529 0.000000 0.000000 0.000000 -10.755687 20.653912 -5.107553 -1.638505 -2.709302 23.437228 0.000000 0.000000 0.000000 -5.332893 18.200573 -9.090008 8.326909 3.095676 -2.668296 
0.754587 -0.038359 0.105813 3.459646 16.114654 -6.689302 -0.000000 0.000000 0.000000 -1.902068 -2.416025 -0.950404 0.673712 -1.724095 -2.141566 0.000000 0.000000 0.000000 0.281787 -0.879055 -3.169753 4.717800 -1.070876 -3.563360 -0.027800 -1.707212 -4.111055 -20.981675 -2.910537 1.035181 -45.326793 -0.075922 -4.648634 -0.928880 -28.004318 4.019218 0.176021 -1.644435 -1.240942 12.560711 8.244402 1.863783 60.447615 -2.752484 -7.120787 -1.041111 59.013077 -1.093257 0.000000 0.000000 -0.000000 -13.992176 18.252015 -1.768195 -0.703891 1.057810 20.744797 0.000000 0.000000 0.000000 -9.432568 21.432012 -9.858721 8.966361 3.314374 -0.895602 
1.070068 -0.073501 0.108397 5.032825 13.210253 -6.938030 -0.000000 0.000000 -0.000000 -3.354691 -3.436022 -0.689757 0.634006 -1.575559 -2.327552 0.000000 0.000000 0.000000 0.665980 -1.347080 -3.099579 4.083187 -2.357614 -3.574473 -0.419275 -1.728488 -3.786173 -24.171893 -2.221450 2.651348 -46.037569 5.574653 -8.703397 -1.395034 -28.233136 4.022483 0.204851 -1.673139 -1.217829 11.492298 7.286954 2.042389 59.596906 -0.471646 -5.302838 -0.452867 52.993971 -0.735942 0.000000 0.000000 -0.000000 -15.891838 17.977113 0.540043 -1.065355 1.639064 18.524100 0.000000 0.000000 0.000000 -12.028563 23.191242 -13.569816 8.640212 1.789911 6.242969 
1.329832 -0.095156 0.060929 5.809920 11.030871 -7.043130 -0.000000 0.000000 -0.000000 -5.074152 -3.198738 0.338550 0.564215 -1.550257 -2.313527 0.000000 0.000000 0.000000 0.802083 -1.518243 -3.086457 3.789370 -3.992536 -2.643594 -0.438123 -1.777451 -3.634312 -25.451428 -1.882630 4.104801 -45.045817 7.076582 -8.445817 -1.011633 -27.052156 6.482584 0.272638 -1.720148 -1.185046 10.014170 7.426450 1.933625 59.073530 2.070989 -3.665640 -0.215111 52.787688 -0.590110 0.000000 0.000000 -0.000000 -16.879576 18.548293 1.127860 -1.531577 2.062849 17.795790 0.000000 0.000000 0.000000 -14.003420 22.921653 -17.270251 8.352387 1.285193 14.348152 
1.633809 -0.098963 -0.000330 6.120707 10.461510 -6.842621 -0.000000 0.000000 -0.000000 -6.072868 -2.647776 0.591638 0.436563 -1.516358 -2.315982 0.000000 0.000000 0.000000 0.519274 -1.631182 -3.255299 3.753858 -4.904794 -2.262370 -0.486855 -1.870633 -3.704312 -27.042365 -1.415623 5.206034 -42.355240 7.483841 -8.495248 -0.418722 -23.553734 8.623916 0.216779 -1.759886 -1.245804 8.142094 7.626030 1.752507 59.717856 3.259646 -3.155800 -0.132395 54.564763 -0.706322 0.000000 0.000000 -0.000000 -17.455109 19.026251 1.244737 -1.846770 2.373313 17.453767 0.000000 0.000000 0.000000 -15.404250 21.997140 -19.598491 8.058861 1.286314 20.111377 
1.968487 -0.090635 -0.066526 6.169907 10.256767 -6.705418 -0.000000 0.000000 -0.000000 -6.281131 -2.155361 0.029851 0.213082 -1.466284 -2.434535 0.000000 0.000000 0.000000 0.125651 -1.692225 -3.512742 3.564358 -5.195739 -2.167287 -0.696037 -1.949279 -3.926035 -28.883475 -0.760003 5.832664 -40.256797 7.525669 -8.081801 0.023407 -19.487739 10.001983 0.050696 -1.805040 -1.412527 6.375497 7.711909 1.575334 61.263408 3.009151 -4.032027 0.038034 54.943097 -0.720266 0.000000 0.000000 -0.000000 -17.807435 19.332036 1.125336 -1.734033 2.665658 17.265340 0.000000 0.000000 0.000000 -16.228271 20.883594 -20.543362 7.782433 1.589733 23.477996 
2.315084 -0.072497 -0.131490 6.012484 10.514415 -6.632575 -0.000000 0.000000 -0.000000 -5.969538 -1.698289 -0.719608 -0.062307 -1.376715 -2.655790 0.000000 0.000000 0.000000 -0.235591 -1.685500 -3.709681 3.369545 -5.332429 -2.038070 -0.986334 -1.921967 -4.190663 -30.781457 0.101576 6.036036 -38.548510 7.709456 -7.479158 0.426052 -14.937334 10.636820 -0.268853 -1.788322 -1.610204 5.227974 7.775735 1.477340 63.189647 2.160878 -5.866872 0.259427 54.294047 -0.664492 0.000000 0.000000 -0.000000 -17.984183 19.507104 0.762179 -1.565096 2.866621 17.320691 0.000000 0.000000 0.000000 -16.738412 19.661809 -20.598460 7.434821 1.697642 25.148664 
2.651023 -0.045772 -0.187159 5.732864 11.288006 -6.526709 -0.000000 0.000000 -0.000000 -5.833907 -1.309296 -1.410433 -0.299073 -1.251608 -2.860894 0.000000 0.000000 0.000000 -0.517276 -1.640305 -3.848924 3.139038 -5.359808 -1.860287 -1.261811 -1.849958 -4.410315 -32.198483 0.822447 5.967041 -37.378754 7.916349 -7.171796 0.723899 -11.886556 10.459483 -0.597904 -1.682105 -1.727868 4.554644 7.746350 1.460652 65.715762 2.018354 -7.048959 0.462119 52.939502 -0.637698 0.000000 0.000000 -0.000000 -17.968773 19.529637 0.325075 -1.419442 3.041999 17.347694 0.000000 0.000000 0.000000 -16.928540 18.285199 -20.082637 6.937402 1.635686 25.476716 
2.951192 -0.009248 -0.228596 5.341811 12.592467 -6.413994 -0.000000 0.000000 -0.000000 -6.069224 -0.971885 -1.691735 -0.462946 -1.111913 -3.024177 0.000000 0.000000 0.000000 -0.720469 -1.571037 -3.967870 3.074021 -5.049696 -1.708323 -1.459037 -1.756290 -4.605062 -32.976896 1.309116 5.890110 -36.767638 8.075830 -7.200313 0.779978 -10.720938 10.052221 -0.912654 -1.546148 -1.811086 4.197660 7.597078 1.471012 67.829435 1.661444 -7.341715 0.619858 51.198359 -0.558281 0.000000 0.000000 -0.000000 -17.800198 19.374405 -0.131094 -1.193898 3.231071 17.383379 0.000000 0.000000 0.000000 -16.859279 16.679616 -19.285301 6.364876 1.497235 25.068007 
3.211371 0.039290 -0.256955 4.873198 14.034582 -6.299128 -0.000000 0.000000 -0.000000 -6.552914 -0.708644 -1.686627 -0.591309 -0.982828 -3.193646 0.000000 0.000000 0.000000 -0.891848 -1.500714 -4.070556 3.122713 -4.544471 -1.620892 -1.604010 -1.669862 -4.776352 -33.146496 1.601803 5.875876 -36.915263 8.201661 -7.371281 0.723326 -10.671869 9.686088 -1.167271 -1.413060 -1.880643 3.812008 7.395649 1.454257 69.419454 1.769904 -6.893988 0.753437 49.341066 -0.495819 0.000000 0.000000 -0.000000 -17.483172 19.183891 -0.597836 -0.942716 3.451036 17.348682 0.000000 0.000000 0.000000 -16.618884 14.902160 -18.300368 5.823582 1.293667 24.023895 
3.428592 0.098439 -0.273027 4.353224 15.402377 -6.172977 -0.000000 0.000000 -0.000000 -7.113315 -0.425438 -1.533657 -0.701134 -0.881676 -3.353932 0.000000 0.000000 0.000000 -1.063953 -1.425174 -4.160990 3.246404 -3.943602 -1.646684 -1.728359 -1.583308 -4.936441 -32.867235 1.743271 5.863767 -37.366722 8.232242 -7.676568 0.638365 -11.338280 9.425148 -1.393620 -1.290542 -1.933307 3.560636 7.214230 1.431591 70.409048 2.008406 -6.275147 0.833795 47.692615 -0.450498 0.000000 0.000000 -0.000000 -17.105035 18.957848 -1.100278 -0.734435 3.698469 17.423272 0.000000 0.000000 0.000000 -16.255553 12.869119 -17.190285 5.274561 1.037202 22.452858 
3.598941 0.165594 -0.277532 3.863629 16.596391 -6.040441 -0.000000 0.000000 -0.000000 -7.686539 -0.231452 -1.243664 -0.818403 -0.782832 -3.528738 0.000000 0.000000 0.000000 -1.242869 -1.354665 -4.253259 3.395085 -3.382357 -1.789860 -1.850939 -1.503455 -5.086091 -32.260308 1.773447 5.871145 -38.107563 8.039929 -7.772072 0.584652 -12.113516 9.261140 -1.612142 -1.172346 -1.978523 3.467769 7.006296 1.393872 70.699708 2.269928 -5.880000 0.859619 46.616243 -0.436166 0.000000 0.000000 -0.000000 -16.694925 18.733493 -1.546966 -0.660370 3.921792 17.439183 0.000000 0.000000 0.000000 -15.860797 10.771092 -16.077846 4.783206 0.783213 20.618176 
3.717616 0.236685 -0.273835 3.469817 17.345638 -5.887961 -0.000000 0.000000 -0.000000 -8.146419 -0.093132 -0.955950 -0.919882 -0.689083 -3.693414 0.000000 0.000000 0.000000 -1.418352 -1.288107 -4.326956 3.533876 -2.880885 -1.982608 -1.967573 -1.410793 -5.212199 -31.560993 1.780957 5.887775 -38.828221 7.596199 -7.568720 0.553693 -12.735261 9.166312 -1.818970 -1.045716 -2.016215 3.528729 6.833554 1.349668 70.426013 2.359991 -5.696578 0.850341 46.117430 -0.445278 0.000000 0.000000 -0.000000 -16.274212 18.619847 -1.858474 -0.725954 4.143722 17.329433 0.000000 0.000000 0.000000 -15.460389 8.895924 -15.098008 4.345466 0.463609 18.826068 
3.787784 0.305270 -0.270432 3.190956 17.609438 -5.738705 -0.000000 0.000000 -0.000000 -8.462679 0.013107 -0.661536 -0.988134 -0.629794 -3.861731 0.000000 0.000000 0.000000 -1.553189 -1.237865 -4.403018 3.682279 -2.497029 -2.145679 -2.061271 -1.361044 -5.333627 -30.873198 1.761359 5.939142 -39.442085 7.071574 -7.090334 0.533390 -13.150014 9.072406 -1.979945 -0.946973 -2.055915 3.690859 6.688821 1.306931 69.793732 2.330119 -5.887187 0.816726 46.105175 -0.465407 0.000000 0.000000 -0.000000 -15.887947 18.686468 -2.020192 -0.816805 4.426157 17.090569 0.000000 0.000000 0.000000 -15.129617 7.419788 -14.231035 3.932520 -0.013575 16.966136 
